<svg height="512pt" viewBox="-78 0 511 512" width="512pt" xmlns="http://www.w3.org/2000/svg"><path d="m178.46875 0c-98.132812 0-177.96875 79.835938-177.96875 177.96875 0 123.339844 177.96875 334.03125 177.96875 334.03125s177.96875-216.757812 177.96875-334.03125c0-98.132812-79.835938-177.96875-177.96875-177.96875zm0 0" fill="#ff0059"/><path d="m178.46875 0v512s177.96875-216.757812 177.96875-334.03125c0-98.132812-79.835938-177.96875-177.96875-177.96875zm0 0" fill="#d20041"/><path d="m232.164062 230.078125c-14.804687 14.804687-34.25 22.207031-53.695312 22.207031s-38.894531-7.402344-53.695312-22.207031c-29.609376-29.605469-29.609376-77.78125 0-107.390625 14.339843-14.34375 33.410156-22.242188 53.695312-22.242188s39.351562 7.902344 53.695312 22.242188c29.609376 29.609375 29.609376 77.785156 0 107.390625zm0 0" fill="#d20041"/><path d="m232.164062 122.6875c-14.34375-14.34375-33.410156-22.242188-53.695312-22.242188v151.839844c19.445312 0 38.890625-7.402344 53.695312-22.207031 29.609376-29.605469 29.609376-77.78125 0-107.390625zm0 0" fill="#9a1830"/></svg>