<svg id="Capa_1" enable-background="new 0 0 512 512" height="512" viewBox="0 0 512 512" width="512" xmlns="http://www.w3.org/2000/svg"><g><path d="m256 0c-141.385 0-256 114.615-256 256s114.615 256 256 256 256-114.615 256-256-114.615-256-256-256zm0 467c-116.346 0-211-94.654-211-211s94.654-211 211-211 211 94.654 211 211-94.654 211-211 211z"/><path d="m256 75c-99.804 0-181 81.196-181 181s81.196 181 181 181 181-81.196 181-181-81.196-181-181-181zm15 187.213-100.56 100.56-21.213-21.213 91.773-91.773v-129.787h30z"/></g></svg>